<?xml version="1.0" encoding="UTF-8" standalone="no"?>
<svg
   xmlns:dc="http://purl.org/dc/elements/1.1/"
   xmlns:cc="http://creativecommons.org/ns#"
   xmlns:rdf="http://www.w3.org/1999/02/22-rdf-syntax-ns#"
   xmlns:svg="http://www.w3.org/2000/svg"
   xmlns="http://www.w3.org/2000/svg"
   height="210.44095"
   width="914.54651"
   xml:space="preserve"
   viewBox="0 0 914.54651 210.44095"
   y="0px"
   x="0px"
   id="Layer_1"
   version="1.1"><metadata
   id="metadata13"><rdf:RDF><cc:Work
       rdf:about=""><dc:format>image/svg+xml</dc:format><dc:type
         rdf:resource="http://purl.org/dc/dcmitype/StillImage" /><dc:title></dc:title></cc:Work></rdf:RDF></metadata><defs
   id="defs11" />
<style
   id="style2"
   type="text/css">
	.st0{fill-rule:evenodd;clip-rule:evenodd;fill:#FFDD00;}
</style>
<g
   transform="translate(-154.97337,-165.95905)"
   id="g6">
	<path
   style="clip-rule:evenodd;fill:#ffdd00;fill-rule:evenodd"
   id="path4"
   d="m 278.1,212.6 c -1.5,-8.3 -8.3,-7.4 -15.1,-10.1 -5.9,-2.7 11.9,0 27.3,-0.9 10.1,0 18.4,0 28.8,-0.9 5.9,4.5 -14.5,-1.5 -14.5,14.5 v 109.5 c 0,14.5 -1.8,12.8 20.5,11.9 32.9,-2.4 51,-35.6 47.5,-24.6 l -6.8,30.5 c 0,0 -14.3,-0.9 -21.1,-0.9 -19.6,-0.9 -49.2,0 -62.9,0 -5,0 -16.9,0 -21.3,0 -1.5,0 -2.4,-1.5 -1.5,-1.5 4.2,-0.9 16,0 19.3,-13.7 V 212.6 Z m 636.1,69.7 h -8.6 c -3.3,21.3 5.9,34.7 16.9,43.3 17.8,11.9 34.1,1.8 37.4,-0.9 11,-5.9 11,-6.8 6.8,-2.4 -21.1,28.8 -83.9,27 -83.9,-30.6 0.9,-29.1 32.9,-43.3 45.7,-42.7 31.5,0 43.4,24.6 44.2,33.3 -12.8,0 -38.3,0 -58.5,0 z m -420.4,-0.9 -9.2,0.9 c -2.7,21.3 5.1,34.1 16.9,42.4 17.8,12.8 33.2,2.7 38.2,0 11,-6.8 9.2,-6.8 5.9,-2.4 -21.3,28.8 -84.8,27 -84.8,-30.6 2.4,-30 33.8,-43.3 47.5,-43.3 31.4,0.6 42.4,25.2 44.2,32.9 -12.7,0.1 -39.1,0.1 -58.7,0.1 z m -89.9,0 -9.2,0.9 c -2.7,21.3 6.5,34.1 17.8,42.4 17.8,11.9 32,1.8 37.4,0 11,-6.8 10.1,-6.8 6.5,-2.4 -22,28.8 -84.8,27 -84.8,-30.6 2.7,-30 33.2,-45.1 47.5,-43.3 30.9,0.6 41.8,25.2 43.3,32.9 -12.5,0.1 -38.9,0.1 -58.5,0.1 z m 532.3,-28.7 c -20.5,-1.8 -37.4,23.7 -25.5,24.6 45.9,2.4 46.8,-20.5 25.5,-24.6 z m -420.1,-0.9 c -22.2,-0.9 -37.4,24.6 -26.4,25.5 45.1,1.7 46,-21.4 26.4,-25.5 z m -89.3,0 c -22,-0.9 -37.4,24.6 -26.1,25.5 43.9,1.7 46.6,-21.4 26.1,-25.5 z M 651.1,316.5 697.7,212 c 1.8,-9.5 -5.1,-6.8 -9.2,-12.2 -0.9,-1.5 5,0 16,0 13.7,0 21.1,-3.3 21.1,0.9 -8.3,4.5 -15.2,3.5 -17.8,11.2 l -59.3,135 c -3.3,8.3 -2.4,11.9 -8.6,0 L 566.3,210.1 c -6.8,-11.9 -10.4,-7.7 -18.1,-11.9 -4.2,-2.7 7.7,0 30.6,0 20.4,0 34.1,-2.7 30.5,1.5 -1.5,1.8 -16,0 -10.1,10.4 z m 87.2,-16.4 c 0,-5.9 -0.6,-5.1 -8.3,-1.8 -4.4,1.8 -8.6,4.5 -13.7,8.6 -7.7,8.6 -5,20.5 2.7,22.9 13.4,5 19.3,-2.4 19.3,-11.9 z m 0,-21.1 v -8.6 c 5.4,-26.4 -28.8,-24.6 -29.7,0 0,11 -16,10.1 -15.1,1.8 0,-8.6 3.3,-16.3 22,-23.2 14.5,-3.3 46.9,1.8 46.9,27.3 l -0.9,45.1 c 0.9,17.8 22.8,-2.7 20.2,5 -4.1,5.1 -21.1,27.9 -38,11 -2.7,-5.1 -2.7,-7.7 -7.7,-2.7 -26.4,24 -51.1,5.9 -43.3,-16.9 2.4,-11 16,-15.2 19.6,-16.9 l 21.9,-9.2 c 4.1,-1.7 4.1,-2.6 4.1,-12.7 z m 106.2,-68.8 c 0,-10.4 -11.9,-3.5 -6.8,-6.8 10.4,-3.5 12.8,-5 22.3,-10.1 10.1,-5.4 8.3,-4.4 8.3,0 v 133.2 c 0,15.2 14.5,11 13.6,15.2 -7.7,0.9 -10.1,0 -25.5,0 -11.9,0 -15.1,0 -25.5,0 0,-4.2 13.6,0 13.6,-15.2 z m -54.3,0 c 0,-11 -10.1,-4.2 -6.8,-7.7 11,-3.3 12.7,-5.9 21.3,-10.1 11,-5 8.3,-4.5 8.3,0.9 v 132.3 c 0,16 14.5,11.9 14.5,15.1 -7.7,0.9 -11.9,0 -27.3,0 -11,0 -12.8,0 -22.8,0 0,-3.3 12.7,0 12.7,-15.1 V 210.2 Z M 226.5,369.9 c -15.4,0 -25.5,1.8 -26.4,-12.8 v -15.4 c 0,-7.4 25.5,2.6 31.5,2.6 6.8,0.9 6.8,-5 3.5,-6.8 L 217,319.7 c -5.1,-6.8 2.7,-10.1 9.5,-11.9 3.3,-0.9 0.9,-5.1 -0.9,-5.9 -3.3,-5.9 -10.1,-11 -14.5,-19.6 -4.2,-10.1 6.8,-5.9 8.6,-6.8 2.6,-0.9 0.9,-3.3 0,-5 -2.7,-3.3 -5.9,-6.8 -8.6,-13.7 -0.6,-5 5.3,-5 8.6,-5.9 4.1,-0.9 5.9,-4.1 2.6,-9.2 -6.8,-8.6 -11.9,-16.3 -17.2,-24.6 -4.2,-5.9 -2.4,-10.4 0,-12.8 6.8,-2.7 11.9,2.4 9.5,-4.5 -6.8,-9.2 -13.6,-19.3 -16.9,-31.1 -2.7,-2.7 -3.6,-4.5 -4.5,0 -1.5,8.3 -7.4,15.1 -12.8,22 0,2.7 -2.4,4.2 1.8,5 5.1,2.7 7.7,4.2 5.1,9.5 -2.4,6.8 -8.3,13.3 -11.9,21.9 -1.5,1.8 -8.3,6.8 4.5,5.9 2.3,0 2.3,3.6 0.6,5.9 -1.5,9.5 -6.5,14.5 -13.4,22.3 -0.9,2.4 -3.5,5.1 0,5.9 5.1,0.6 15.1,-2.6 11.9,3.3 -2.7,4.1 -5,6.8 -6.8,10.1 -1.8,1.8 -2.7,4.4 0,4.4 3.3,2.4 6.8,3.3 3.3,6.8 l -14.3,17.8 c -1.8,3.3 -4.5,5 0,7.4 2.4,1.8 11.9,1.8 8.3,8.6 -4.2,5.9 -8.3,9.2 -13.6,14.5 -4.2,9.2 6.8,10.1 14.5,5 5.9,-3.5 19.6,-13.6 19.6,-3.5 v 15.4 c 0,14.5 -9.5,12.8 -24.6,13.6 v 5.9 h 60.2 760.7 v 0 c 5.1,0 15.2,-0.9 18.7,-7.7 l 51,-99.4 c 6.6,-12.8 10.1,-11 12.8,-12.8 3.3,-1.8 -5.4,-1.8 -12.8,-1.8 -9.5,0 -14.5,-1.5 -14.5,0 5.9,6.2 9.2,2.7 5,14.5 l -20.5,46.9 -20.2,-46.9 c -4.5,-11.9 3.3,-11.9 7.7,-14.5 -3.6,-1.5 0,0 -23.2,0 -11,0 -21.1,-1.5 -21.1,-0.6 5,5 9.2,3.3 13.6,12.7 l 27,69.4 v 11 l -5.9,11.3 c -4.1,10.1 -15.1,11 -17.8,11 H 226.5 Z"
   class="st0" />
</g>
</svg>